# xmcd
#
# Track frame offsets:
# 150
# 17075
# 36949
# 56240
# 78587
# 92856
# 125780
# 146338
# 162042
# 180374
# 196549
# 217463
# 232319
# 247068
# 266495
# 285715
# 306619
#
# Disc length: 4261 seconds
#
# Revision: 0
# Processed by: cddbd v1.5.2PL0 Copyright (c) Steve Scherf et al.
# Submitted via: CoinsHifi v1.9h contact@coinshifi.com
#
DISCID=0610a311
DTITLE=celtic and 1 and 2 - inter celtic
DYEAR=2012
DGENRE=Acoustic
TTITLE0=1
TTITLE1=2
TTITLE2=3
TTITLE3=4
TTITLE4=5
TTITLE5=6
TTITLE6=7
TTITLE7=8
TTITLE8=9
TTITLE9=10
TTITLE10=11
TTITLE11=12
TTITLE12=13
TTITLE13=14
TTITLE14=15
TTITLE15=16
TTITLE16=17
EXTD=
EXTT0=Instrumental
EXTT1=Instrumental
EXTT2=Instrumental
EXTT3=Instrumental
EXTT4=Instrumental
EXTT5=Instrumental
EXTT6=Instrumental
EXTT7=Instrumental
EXTT8=Instrumental
EXTT9=Instrumental
EXTT10=Instrumental
EXTT11=Instrumental
EXTT12=Instrumental
EXTT13=Instrumental
EXTT14=Instrumental
EXTT15=Instrumental
EXTT16=Instrumental
PLAYORDER=
